<?xml version="1.0" standalone="no"?>
<!DOCTYPE svg PUBLIC "-//W3C//DTD SVG 20010904//EN"
 "http://www.w3.org/TR/2001/REC-SVG-20010904/DTD/svg10.dtd">
<svg version="1.0" xmlns="http://www.w3.org/2000/svg"
 width="293.000000pt" height="191.000000pt" viewBox="0 0 293.000000 191.000000"
 preserveAspectRatio="xMidYMid meet">

<g transform="translate(0.000000,191.000000) scale(0.100000,-0.100000)"
fill="#FFFFFF" stroke="none">
<path d="M1090 1838 c-20 -5 -49 -20 -65 -33 -24 -19 -28 -26 -18 -36 11 -11
23 -9 65 6 69 25 141 25 168 0 52 -47 20 -142 -194 -580 -156 -318 -226 -436
-337 -574 l-74 -91 -69 0 c-143 0 -263 -40 -309 -101 -44 -61 -39 -160 11
-200 23 -18 35 -20 80 -15 82 10 163 57 304 179 l57 49 47 -16 c26 -9 57 -16
68 -16 12 0 37 -10 56 -21 74 -45 113 -44 173 7 l31 26 39 -46 c46 -54 90 -63
108 -22 10 20 15 22 44 16 18 -4 46 -16 63 -26 31 -18 32 -18 54 3 33 30 154
44 450 50 170 4 294 1 395 -8 l148 -13 -135 -8 c-121 -6 -408 -40 -950 -112
-205 -28 -467 -52 -665 -62 -143 -7 -165 -16 -165 -66 0 -15 8 -36 19 -47 17
-17 44 -19 309 -26 375 -9 517 1 1042 75 368 52 444 59 725 69 253 8 290 15
315 60 47 88 -44 165 -244 207 -328 69 -1173 53 -1271 -24 -21 -17 -32 -19
-58 -11 -47 13 -93 11 -107 -6 -10 -12 -17 -9 -46 20 -46 47 -89 47 -140 3
l-36 -32 -55 29 c-30 15 -77 32 -105 36 -28 5 -53 10 -55 13 -2 2 25 41 61 86
93 116 167 239 261 435 145 300 225 493 246 593 20 95 -9 200 -62 227 -31 17
-124 18 -179 3z m-530 -1382 c0 -12 -161 -141 -198 -159 -43 -22 -44 -22 -58
-2 -19 25 -9 73 21 104 30 31 118 60 183 61 28 0 52 -2 52 -4z"/>
</g>
</svg>
